<!-- icon666.com - MILLIONS OF FREE VECTOR ICONS --><svg id="Capa_1" enable-background="new 0 0 512 512" viewBox="0 0 512 512" xmlns="http://www.w3.org/2000/svg" xmlns:xlink="http://www.w3.org/1999/xlink"><linearGradient id="SVGID_1_" gradientUnits="userSpaceOnUse" x1="256" x2="256" y1="471" y2="41"><stop offset="0" stop-color="#fd3a84"></stop><stop offset="1" stop-color="#ffa68d"></stop></linearGradient><path d="m497 471h-482c-8.284 0-15-6.716-15-15s6.716-15 15-15h482c8.284 0 15 6.716 15 15s-6.716 15-15 15zm-100-100h-282c-8.284 0-15-6.716-15-15s6.716-15 15-15h282c8.284 0 15 6.716 15 15s-6.716 15-15 15zm100-100h-482c-8.284 0-15-6.716-15-15s6.716-15 15-15h482c8.284 0 15 6.716 15 15s-6.716 15-15 15zm-100-100h-282c-8.284 0-15-6.716-15-15s6.716-15 15-15h282c8.284 0 15 6.716 15 15s-6.716 15-15 15zm100-100h-482c-8.284 0-15-6.716-15-15s6.716-15 15-15h482c8.284 0 15 6.716 15 15s-6.716 15-15 15z" fill="url(#SVGID_1_)" style="fill: rgb(0, 0, 0);"></path></svg>