<!-- icon666.com - MILLIONS OF FREE VECTOR ICONS --><svg viewBox="-60 0 448 448" xmlns="http://www.w3.org/2000/svg"><path d="m24 216h96.382812c.082032-1.0625.082032-2.136719.183594-3.199219.128906-1.257812.378906-2.472656.546875-3.722656.320313-2.398437.621094-4.796875 1.09375-7.15625.289063-1.449219.703125-2.851563 1.058594-4.28125.503906-2.089844.980469-4.191406 1.597656-6.234375.449219-1.496094 1.015625-2.925781 1.527344-4.390625.671875-1.910156 1.320313-3.832031 2.097656-5.703125.609375-1.480469 1.320313-2.898438 1.992188-4.34375.800781-1.777344 1.597656-3.554688 2.542969-5.273438.761718-1.429687 1.601562-2.808593 2.402343-4.199218.964844-1.65625 1.925781-3.304688 2.972657-4.902344.90625-1.363281 1.875-2.664062 2.824218-4 1.105469-1.53125 2.210938-3.058594 3.386719-4.523438 1.03125-1.285156 2.117187-2.511718 3.199219-3.742187 1.230468-1.40625 2.472656-2.800781 3.765625-4.144531 1.144531-1.191406 2.347656-2.320313 3.539062-3.457032 1.351563-1.277343 2.71875-2.542968 4.125-3.75 1.257813-1.074218 2.546875-2.105468 3.851563-3.121093 1.46875-1.152344 2.949218-2.28125 4.476562-3.351563 1.355469-.960937 2.722656-1.863281 4.121094-2.761718 1.601562-1.015626 3.199219-1.992188 4.800781-2.925782 1.441407-.800781 2.886719-1.601562 4.359375-2.402344 1.679688-.863281 3.382813-1.679687 5.113282-2.460937 1.511718-.6875 3.03125-1.34375 4.574218-1.960937 1.777344-.710938 3.578125-1.359376 5.402344-1.984376 1.597656-.535156 3.140625-1.054687 4.75-1.527343 1.855469-.535157 3.746094-1.007813 5.648438-1.457031 1.601562-.382813 3.257812-.757813 4.910156-1.070313 1.953125-.367187 3.921875-.640625 5.898437-.90625 1.671875-.222656 3.335938-.453125 5.03125-.597656.601563-.058594 1.183594-.167969 1.792969-.21875v-112.230469h-223.96875v448h224v-112.28125c-.609375-.046875-1.191406-.160156-1.792969-.214844-1.695312-.144531-3.359375-.375-5.03125-.601562-1.976562-.261719-3.945312-.535156-5.894531-.902344-1.65625-.3125-3.28125-.6875-4.914062-1.070312-1.902344-.449219-3.792969-.921876-5.648438-1.457032-1.597656-.472656-3.199219-.992187-4.75-1.527344-1.824219-.625-3.625-1.273437-5.402344-1.984374-1.542968-.617188-3.0625-1.273438-4.574218-1.960938-1.726563-.800781-3.433594-1.601562-5.113282-2.464844-1.472656-.757812-2.917968-1.550781-4.359375-2.398437-1.597656-.933594-3.199219-1.910157-4.800781-2.929688-1.398438-.894531-2.765625-1.800781-4.117188-2.757812-1.53125-1.074219-3.007812-2.203125-4.480468-3.351563-1.304688-1.019531-2.59375-2.050781-3.847656-3.121094-1.410157-1.207031-2.777344-2.472656-4.128907-3.753906-1.191406-1.132812-2.402343-2.261718-3.535156-3.453125-1.296875-1.34375-2.539063-2.738281-3.769531-4.144531-1.078125-1.234375-2.167969-2.457031-3.199219-3.746094-1.175781-1.464844-2.28125-2.992187-3.382813-4.519531-.953124-1.328125-1.921874-2.632813-2.824218-4-1.050782-1.597656-2.007813-3.246094-2.976563-4.902344-.800781-1.394531-1.664062-2.769531-2.402343-4.199219-.910157-1.722656-1.71875-3.496093-2.542969-5.273437-.671875-1.449219-1.382813-2.863281-1.992188-4.34375-.800781-1.871094-1.421875-3.792969-2.09375-5.703125-.515625-1.464844-1.082031-2.898438-1.53125-4.394531-.621093-2.039063-1.101562-4.144531-1.597656-6.230469-.351563-1.433594-.800781-2.832031-1.058594-4.28125-.46875-2.351562-.796875-4.757812-1.09375-7.199219-.167969-1.246093-.417969-2.464843-.542969-3.71875-.105468-1.058593-.105468-2.128906-.1875-3.203125h-96.414062c-4.417969 0-8-3.578125-8-8 0-4.417968 3.582031-8 8-8zm0 128h176c4.417969 0 8 3.582031 8 8s-3.582031 8-8 8h-176c-4.417969 0-8-3.582031-8-8s3.582031-8 8-8zm0-256h176c4.417969 0 8 3.582031 8 8s-3.582031 8-8 8h-176c-4.417969 0-8-3.582031-8-8s3.582031-8 8-8zm0 0"></path><path d="m328 224c0-53.019531-42.980469-96-96-96s-96 42.980469-96 96 42.980469 96 96 96c52.996094-.058594 95.941406-43.003906 96-96zm-146.910156 58.910156c-3.238282 0-6.152344-1.949218-7.390625-4.9375-1.238281-2.988281-.554688-6.429687 1.734375-8.714844l45.253906-45.257812-45.253906-45.257812c-3.035156-3.136719-2.988282-8.125.097656-11.210938s8.074219-3.132812 11.210938-.097656l45.257812 45.253906 45.257812-45.253906c3.136719-3.035156 8.125-2.988282 11.210938.097656s3.132812 8.074219.097656 11.210938l-45.253906 45.257812 45.253906 45.257812c2.082032 2.007813 2.914063 4.980469 2.183594 7.777344-.734375 2.796875-2.917969 4.980469-5.714844 5.714844-2.796875.730469-5.769531-.101562-7.777344-2.183594l-45.257812-45.253906-45.257812 45.253906c-1.5 1.503906-3.53125 2.34375-5.652344 2.34375zm0 0"></path></svg>