<!-- icon666.com - MILLIONS OF FREE VECTOR ICONS --><svg viewBox="-48 0 448 448" xmlns="http://www.w3.org/2000/svg"><path d="m344 48h-96v-24c0-13.253906-10.746094-24-24-24h-96c-13.253906 0-24 10.746094-24 24v24h-96c-4.417969 0-8 3.582031-8 8s3.582031 8 8 8h40v360c0 13.253906 10.746094 24 24 24h208c13.253906 0 24-10.746094 24-24v-360h40c4.417969 0 8-3.582031 8-8s-3.582031-8-8-8zm-224 352c0 4.417969-3.582031 8-8 8s-8-3.582031-8-8v-288c0-4.417969 3.582031-8 8-8s8 3.582031 8 8zm64 0c0 4.417969-3.582031 8-8 8s-8-3.582031-8-8v-288c0-4.417969 3.582031-8 8-8s8 3.582031 8 8zm64 0c0 4.417969-3.582031 8-8 8s-8-3.582031-8-8v-288c0-4.417969 3.582031-8 8-8s8 3.582031 8 8zm0 0"></path></svg>